<?xml version="1.0" encoding="UTF-8" standalone="no"?>
<!-- Created with Inkscape (http://www.inkscape.org/) -->

<svg
   width="30"
   height="32"
   viewBox="0 0 7.9374998 8.4666669"
   version="1.1"
   id="svg5"
   inkscape:version="1.1.1 (3bf5ae0d25, 2021-09-20)"
   sodipodi:docname="logo-medpharma.svg"
   xmlns:inkscape="http://www.inkscape.org/namespaces/inkscape"
   xmlns:sodipodi="http://sodipodi.sourceforge.net/DTD/sodipodi-0.dtd"
   xmlns="http://www.w3.org/2000/svg"
   xmlns:svg="http://www.w3.org/2000/svg">
  <sodipodi:namedview
     id="namedview7"
     pagecolor="#ffffff"
     bordercolor="#999999"
     borderopacity="1"
     inkscape:pageshadow="0"
     inkscape:pageopacity="0"
     inkscape:pagecheckerboard="0"
     inkscape:document-units="mm"
     showgrid="false"
     units="px"
     inkscape:zoom="4.192802"
     inkscape:cx="33.152055"
     inkscape:cy="14.906499"
     inkscape:window-width="1920"
     inkscape:window-height="1017"
     inkscape:window-x="-8"
     inkscape:window-y="-8"
     inkscape:window-maximized="1"
     inkscape:current-layer="layer1" />
  <defs
     id="defs2" />
  <g
     inkscape:label="Camada 1"
     inkscape:groupmode="layer"
     id="layer1">
    <path
       style="fill:#696cff;fill-opacity:1;stroke-width:0.0428407"
       d="m 3.5021424,7.9934569 c -1.06391,-0.55033 -1.89127,-1.30907 -2.31576,-2.12371 -0.29172996,-0.55986 -0.34897995,-0.77041 -0.35104995,-1.29118 -0.001,-0.41806 0.008,-0.47004 0.13379999,-0.73599 0.34322996,-0.72448 1.05360996,-1.10584 1.81938996,-0.97667 0.46973,0.0793 0.4768,0.0908 0.4823,0.78727 0.006,0.73369 0.0255,0.71119 -0.62234,0.71119 -0.41728,0 -0.47081,0.009 -0.56831,0.0964 -0.11476,0.10274 -0.1234,0.16526 -0.11514,0.83233 0.006,0.42615 0.0265,0.44218 0.58734,0.44218 0.49366,0 0.67216,0.0555 0.71707,0.2232 0.0145,0.054 0.0269,0.29089 0.0276,0.52651 10e-4,0.4565 0.012,0.49521 0.15777,0.57194 0.12162,0.064 0.89077,0.064 1.01239,0 0.14576,-0.0768 0.15644,-0.11544 0.15776,-0.57194 6.1e-4,-0.23562 0.0131,-0.47255 0.0276,-0.52651 0.0449,-0.16764 0.22341,-0.2232 0.71707,-0.2232 0.56078,0 0.58206,-0.016 0.58734,-0.44218 0.008,-0.66707 -4e-4,-0.72955 -0.11515,-0.83233 -0.0975,-0.0873 -0.15102,-0.0964 -0.56831,-0.0964 -0.64642,0 -0.62698,0.0219 -0.62698,-0.70721 0,-0.69378 0.0102,-0.71089 0.48694,-0.79125 0.76601,-0.1292 1.47769,0.253 1.81865,0.97667 0.12364,0.26242 0.13471,0.32173 0.13339,0.71457 -0.002,0.77345 -0.30765,1.45537 -0.98296,2.19722 -0.51974,0.57097 -1.80701,1.42266 -2.15043,1.42278 -0.052,2e-5 -0.25447,-0.0826 -0.44983,-0.18369 z m -0.002,-5.31556 c -0.44935,-0.16763 -0.80317,-0.6585 -0.80317,-1.11429 0,-0.56347 0.42883,-1.07549998 0.98534,-1.17651998 0.56004,-0.10161 1.05095,0.14746 1.29119,0.65528998 0.28254,0.59722 0.0376,1.30924 -0.54563,1.58605 -0.2173,0.10319 -0.713,0.12957 -0.92773,0.0495 z"
       id="path3078" />
    <g
       id="g2228"
       transform="translate(58.90024,38.909856)" />
  </g>
</svg>
